#!OML:ASF X:\für Bonn\!DataBase\2005_08_11_Bastian_Final\c3d\Bastian.ASF
:FULLY-SPECIFIED
:DEGREES
48
root 3.46551 16.8945 -2.61833 628.528 83.6115 -435.142
lowerback 21.1829 -2.02789 9.31847
upperback 13.9535 0.337769 5.03227
thorax 3.5052 1.18233 0.169526
lowerneck 4.83256 -13.7723 -5.62074
upperneck 5.15096 -19.1208 18.3629
head 3.0886 -9.32653 5.89094
rclavicle -1.74931e-014 -4.92986e-014
rhumerus -9.04853 14.0144 -73.1095
rradius 26.9486
rwrist 0.132171
rhand -23.658 -1.71773
rfingers 7.12502
rthumb 2.80764 -31.679
lclavicle -1.74931e-014 -4.92986e-014
lhumerus -27.7416 -0.829092 93.8691
lradius 12.7539
lwrist 6.40913
lhand -6.77413 -1.95532
lfingers 7.12502
lthumb 19.088 27.128
rfemur -0.277579 -3.20774 26.6995
rtibia 43.5912
rfoot -16.8268 2.67626
rtoes -5.80736
lfemur -13.1753 1.02678 -14.288
ltibia 29.9689
lfoot -0.450395 -4.62708
ltoes -13.4071
49
root 3.54472 16.8724 -2.64693 633.333 83.626 -430.346
lowerback 21.8929 -2.08279 9.32765
upperback 14.1542 0.386911 5.01913
thorax 3.38723 1.22408 0.14573
lowerneck 4.57997 -13.7967 -5.53459
upperneck 4.92901 -19.1322 18.3934
head 3.061 -9.33466 5.87219
rclavicle -4.77083e-015 1.90833e-014
rhumerus -7.94981 14.3319 -72.7004
rradius 26.8078
rwrist 0.417409
rhand -23.7598 -1.77925
rfingers 7.12502
rthumb 2.70932 -31.7418
lclavicle -4.77083e-015 1.90833e-014
lhumerus -27.7514 -2.27873 94.4932
lradius 12.899
lwrist 7.13853
lhand -6.65188 -2.0873
lfingers 7.12502
lthumb 19.2056 26.9844
rfemur -0.950657 -3.39271 26.3445
rtibia 45.1515
rfoot -16.8364 3.14184
rtoes -7.87862
lfemur -13.2636 1.13077 -14.4557
ltibia 30.5186
lfoot 0.197238 -4.18215
ltoes -11.5235
50
root 3.61908 16.8487 -2.67599 637.73 83.572 -425.896
lowerback 22.7008 -2.17501 9.33235
upperback 14.3962 0.409208 5.04745
thorax 3.27086 1.25561 0.175564
lowerneck 4.25946 -13.8091 -5.45544
upperneck 4.72422 -19.1283 18.3397
head 3.0401 -9.33338 5.82482
rclavicle -4.77083e-015 -2.54444e-014
rhumerus -6.77636 14.7329 -72.2005
rradius 26.7137
rwrist 0.605661
rhand -23.8355 -1.87287
rfingers 7.12502
rthumb 2.63627 -31.8363
lclavicle -4.77083e-015 -2.54444e-014
lhumerus -27.6441 -3.20224 94.9591
lradius 13.0241
lwrist 7.37823
lhand -6.515 -2.32387
lfingers 7.12502
lthumb 19.3372 26.7347
rfemur -1.7167 -3.58581 26.0312
rtibia 46.9644
rfoot -16.6225 3.50172
rtoes -10.5821
lfemur -13.3341 1.30172 -14.5946
ltibia 31.1427
lfoot 0.812229 -3.82605
ltoes -10.08
51
root 3.68899 16.8234 -2.70504 641.437 83.4669 -422.17
lowerback 23.5205 -2.28251 9.34579
upperback 14.6183 0.419421 5.11859
thorax 3.13035 1.27865 0.249036
lowerneck 3.97902 -13.8164 -5.41052
upperneck 4.5086 -19.1167 18.2812
head 3.01122 -9.33176 5.78505
rclavicle 4.6118e-014 6.52014e-014
rhumerus -5.59718 14.9613 -71.6721
rradius 26.5707
rwrist 0.940687
rhand -23.8345 -2.01416
rfingers 7.12502
rthumb 2.6372 -31.9776
lclavicle 4.6118e-014 6.52014e-014
lhumerus -27.497 -4.27879 95.5042
lradius 13.0802
lwrist 7.75924
lhand -6.42176 -2.65395
lfingers 7.12502
lthumb 19.4269 26.3956
rfemur -2.67431 -3.76704 25.7726
rtibia 49.0104
rfoot -16.0902 3.68836
rtoes -12.5041
lfemur -13.5156 1.50935 -14.6981
ltibia 31.8487
lfoot 1.33214 -3.58209
ltoes -8.90185
52
root 3.75423 16.7943 -2.7346 644.808 83.296 -418.77
lowerback 24.4072 -2.39917 9.4323
upperback 14.8515 0.447518 5.19048
thorax 2.97955 1.31766 0.280288
lowerneck 3.70474 -13.836 -5.31414
upperneck 4.2187 -19.1106 18.2509
head 2.95804 -9.33622 5.74894
rclavicle 1.43125e-014 2.38542e-014
rhumerus -4.39184 15.2218 -71.1287
rradius 26.4192
rwrist 1.12038
rhand -23.8611 -2.1699
rfingers 7.12502
rthumb 2.61151 -32.1337
lclavicle 1.43125e-014 2.38542e-014
lhumerus -27.2581 -5.52529 96.0771
lradius 13.1155
lwrist 8.195
lhand -6.3863 -3.0033
lfingers 7.12502
lthumb 19.461 26.0428
rfemur -3.75586 -3.92094 25.5844
rtibia 51.224
rfoot -15.3601 3.6886
rtoes -14.5496
lfemur -13.74 1.79423 -14.7484
ltibia 32.6483
lfoot 1.70707 -3.41053
ltoes -8.07748
53
root 3.81313 16.7638 -2.76528 647.762 83.1447 -415.809
lowerback 25.354 -2.5311 9.52201
upperback 15.0641 0.470724 5.2653
thorax 2.78272 1.35248 0.31331
lowerneck 3.46676 -13.8587 -5.24177
upperneck 3.89058 -19.1051 18.2354
head 2.89145 -9.34539 5.72461
rclavicle -1.90833e-014 -5.40694e-014
rhumerus -3.17914 15.2994 -70.5756
rradius 26.2352
rwrist 1.4036
rhand -23.7874 -2.26159
rfingers 7.12502
rthumb 2.68272 -32.2245
lclavicle -1.90833e-014 -5.40694e-014
lhumerus -26.9842 -6.96415 96.6814
lradius 13.1639
lwrist 8.85215
lhand -6.39355 -3.35196
lfingers 7.12502
lthumb 19.454 25.6948
rfemur -4.96636 -4.06316 25.3747
rtibia 53.5371
rfoot -14.554 3.53189
rtoes -16.1665
lfemur -14.0012 2.0936 -14.8408
ltibia 33.5216
lfoot 1.81919 -3.35935
ltoes -7.88444
